<?xml version="1.0" encoding="iso-8859-1"?>
<!-- Generator: Adobe Illustrator 19.0.0, SVG Export Plug-In . SVG Version: 6.00 Build 0)  -->
<svg version="1.1" id="Layer_1" xmlns="http://www.w3.org/2000/svg" xmlns:xlink="http://www.w3.org/1999/xlink" x="0px" y="0px"
	 viewBox="0 0 512 512" style="enable-background:new 0 0 512 512;" xml:space="preserve">
<path style="fill:#BFE4F8;" d="M246.278,48.608c114.357,0,207.392,93.035,207.392,207.392s-93.035,207.392-207.392,207.392
	c-114.356,0-207.392-93.035-207.392-207.392S131.922,48.608,246.278,48.608 M246.278,9.722C110.479,9.722,0,120.201,0,256
	s110.479,246.278,246.278,246.278S492.557,391.799,492.557,256S382.078,9.722,246.278,9.722L246.278,9.722z"/>
<path style="fill:#93C7EF;" d="M246.278,9.722v38.886c114.357,0,207.392,93.035,207.392,207.392s-93.035,207.392-207.392,207.392
	v38.886c135.799,0,246.278-110.479,246.278-246.278S382.078,9.722,246.278,9.722z"/>
<circle style="fill:#3C5D76;" cx="473.114" cy="256" r="38.886"/>
<path style="fill:#1E2E3B;" d="M473.114,294.886C494.589,294.886,512,277.475,512,256s-17.411-38.886-38.886-38.886"/>
<circle style="fill:#78B9EB;" cx="246.278" cy="256" r="155.544"/>
<path style="fill:#5A8BB0;" d="M246.278,100.456c85.904,0,155.544,69.64,155.544,155.544s-69.64,155.544-155.544,155.544"/>
<path style="fill:#64C37D;" d="M339.16,126.38h-53.996v38.886l25.924,12.962v64.81h-51.848l-12.962,64.81h38.886l22.656,75.521
	c0.229-0.121,0.499-0.254,0.823-0.404c4.683-2.166,49.877-30.313,53.813-32.883L375.899,256l31.119-37.342L339.16,126.38z"/>
<g>
	<polygon style="fill:#91DC5A;" points="220.354,191.19 220.354,165.266 124.629,165.266 86.406,289.775 155.544,333.772 
		181.468,256 155.544,256 155.544,217.114 	"/>
	<circle style="fill:#91DC5A;" cx="213.472" cy="366.981" r="19.443"/>
</g>
<path style="fill:#E4F1FB;" d="M246.278,126.38c71.474,0,129.62,58.146,129.62,129.62s-58.146,129.62-129.62,129.62
	c-71.473,0-129.62-58.146-129.62-129.62S174.806,126.38,246.278,126.38 M246.278,87.494c-93.063,0-168.506,75.443-168.506,168.506
	s75.443,168.506,168.506,168.506S414.785,349.063,414.785,256S339.342,87.494,246.278,87.494L246.278,87.494z"/>
<path style="fill:#C9E3F7;" d="M246.278,87.494v38.886c71.474,0,129.62,58.146,129.62,129.62s-58.146,129.62-129.62,129.62v38.886
	c93.063,0,168.506-75.443,168.506-168.506S339.342,87.494,246.278,87.494z"/>
<g>
</g>
<g>
</g>
<g>
</g>
<g>
</g>
<g>
</g>
<g>
</g>
<g>
</g>
<g>
</g>
<g>
</g>
<g>
</g>
<g>
</g>
<g>
</g>
<g>
</g>
<g>
</g>
<g>
</g>
</svg>
